<?xml version="1.0" encoding="UTF-8"?>
<svg width="40px" height="40px" viewBox="0 0 40 40" version="1.1" xmlns="http://www.w3.org/2000/svg" xmlns:xlink="http://www.w3.org/1999/xlink">
    <title>政府投资</title>
    <defs>
        <linearGradient x1="50%" y1="0%" x2="50%" y2="100%" id="linearGradient-1">
            <stop stop-color="#519DF0" offset="0%"></stop>
            <stop stop-color="#2864DD" offset="100%"></stop>
        </linearGradient>
    </defs>
    <g id="页面-1" stroke="none" stroke-width="1" fill="none" fill-rule="evenodd">
        <g id="01-全市金融运行（已优化）" transform="translate(-34, -1653)">
            <g id="政府投资" transform="translate(34, 1653)">
                <circle id="椭圆形" stroke="#C4D7FF" fill="#E4EBFA" cx="20" cy="20" r="19.5"></circle>
                <path d="M19.1933327,10.8957556 C19.4554348,10.69545 19.783595,10.5782499 20.1138862,10.5889045 C20.3632028,10.5825117 20.6103884,10.6507009 20.8277413,10.7700319 C20.9364178,10.8275665 21.0344397,10.9064102 21.1345925,10.9788612 C23.6959473,12.8412772 26.2551713,14.7058242 28.8165261,16.5661094 C29.0402717,16.7259277 29.2192682,16.9454115 29.3236829,17.1989899 C29.5282503,17.6805758 29.4494066,18.2644453 29.1319009,18.677842 C28.9465116,18.9314204 28.6716241,19.1189406 28.3690348,19.204177 C28.2582274,19.2382716 28.1431583,19.2489261 28.03022,19.2638425 C28.0323509,21.6568554 28.0323509,24.0477374 28.03022,26.4407502 C28.3136311,26.4620593 28.5927804,26.5622121 28.8207879,26.7348159 C29.0956754,26.9393834 29.295981,27.2419727 29.3748247,27.5743948 C29.4557993,27.9196023 29.4174429,28.2946427 29.249101,28.6078866 C29.0466645,29.0084978 28.6481841,29.3025635 28.2070856,29.385669 C28.0259582,29.4218945 27.8405689,29.409109 27.6573106,29.4112399 L12.0675669,29.4112399 C11.8139885,29.409109 11.5582792,29.3430508 11.3366645,29.2151961 C11.0298133,29.0425924 10.7911513,28.7549194 10.6739512,28.4246282 C10.5865838,28.1859662 10.5674056,27.9238642 10.6100239,27.6724167 C10.6696894,27.3101618 10.8721259,26.9756088 11.1619298,26.7518632 C11.4474718,26.5259867 11.8161194,26.4194411 12.1762433,26.4386193 C12.1783742,24.0456064 12.1762433,21.6547245 12.1762433,19.2617116 C11.8907013,19.2446643 11.609421,19.1487733 11.3771518,18.9783005 C11.0148969,18.7119366 10.7890204,18.2772308 10.7719731,17.8297395 C10.7421403,17.3524155 10.9744096,16.8729605 11.3579736,16.5895494 C13.9747321,14.6930388 16.5829669,12.7943972 19.1933327,10.8957556 M19.8709624,15.0084136 C19.5513257,15.0510318 19.2615219,15.261992 19.1230127,15.5539267 C18.8779579,16.0717381 18.637165,16.5895494 18.3921102,17.1073607 C18.3537539,17.124408 18.3111356,17.1265389 18.2727792,17.1329317 C17.776277,17.2075135 17.2797748,17.2842263 16.7854035,17.3588082 C16.6490252,17.3801173 16.5169087,17.4312592 16.4018395,17.5058411 C16.103512,17.6933612 15.9245155,18.0513542 15.9500864,18.4029545 C15.9650028,18.6416165 16.0672865,18.8738858 16.2377594,19.0422278 C16.5787051,19.3938281 16.9239127,19.7432975 17.2648584,20.0948977 C17.3160003,20.1503014 17.3777967,20.1971815 17.4161531,20.2611088 C17.3287857,20.8108838 17.2371566,21.3606588 17.1476583,21.9104338 C17.1178256,22.0702521 17.1135637,22.238594 17.156182,22.3962814 C17.2243711,22.6562526 17.4033676,22.8863909 17.6398987,23.0142456 C17.8615134,23.1357075 18.1300082,23.1655403 18.375063,23.1016129 C18.5497977,23.0568638 18.6989614,22.9503183 18.8587797,22.8672127 C19.2295582,22.6626453 19.6024676,22.455947 19.9732461,22.2513795 C19.9924243,22.2428559 20.0158643,22.2215468 20.0371734,22.2364631 C20.5081047,22.4964343 20.979036,22.7564054 21.4478364,23.0163765 C21.7525566,23.1825875 22.1446442,23.171933 22.4387099,22.9865438 C22.7178593,22.8182018 22.9032485,22.502827 22.9096412,22.1746667 C22.916034,22.0105866 22.8734157,21.8486374 22.8499757,21.6866881 C22.7732629,21.2072332 22.6901574,20.7277783 22.6177064,20.2461924 C22.9714376,19.8860685 23.3230379,19.5238136 23.6767691,19.1615588 C23.7705292,19.0635369 23.8728129,18.9719077 23.9410021,18.8547076 C24.0795113,18.630962 24.1221295,18.3518127 24.0582022,18.0982343 C23.9878821,17.8041686 23.774791,17.5484593 23.4977726,17.4269974 C23.344347,17.3566773 23.1738742,17.3438918 23.0076631,17.3183209 C22.55591,17.2480009 22.102026,17.1819426 21.648142,17.1094917 C21.5970002,17.0327789 21.5671674,16.9432806 21.5245492,16.862306 C21.3476836,16.4872657 21.170818,16.1100945 20.9939524,15.7350542 C20.932156,15.6050686 20.8788832,15.4686903 20.7829922,15.3578829 C20.5677702,15.09365 20.2076463,14.9551408 19.8709624,15.0084136 M15.4450606,25.5010185 C15.3086823,25.5308513 15.1872203,25.6224805 15.1211621,25.7439424 C15.0359257,25.895237 15.0401875,26.0912808 15.1296858,26.2404446 C15.2000058,26.3597756 15.3214677,26.445012 15.457846,26.470583 C15.5239043,26.4833684 15.5920934,26.4791066 15.6602826,26.4791066 L24.4779916,26.4791066 C24.5973226,26.4791066 24.7166536,26.4343575 24.8061519,26.3533829 C24.9340065,26.2404446 24.993672,26.0593172 24.9617084,25.8931061 C24.9340065,25.729026 24.8146755,25.5841241 24.659119,25.5244586 C24.5483117,25.4754476 24.4268498,25.4924949 24.3096497,25.490364 L15.5473443,25.490364 C15.5132497,25.490364 15.4791551,25.4924949 15.4450606,25.5010185 L15.4450606,25.5010185 Z M19.0612163,18.0236524 C19.3851147,17.3545464 19.6919659,16.6747858 20.0158643,16.0035489 C20.30993,16.6279058 20.6018648,17.2522627 20.8959305,17.8787505 C20.9172396,17.9256305 20.9364178,17.9725105 20.9641196,18.0172597 C21.170818,18.057747 21.3817782,18.0833179 21.5906074,18.1174125 C22.0871096,18.1941253 22.5836119,18.2687071 23.0801141,18.3454199 C22.5729573,18.8717549 22.0594078,19.3938281 21.5479892,19.9180321 C21.6694511,20.6574582 21.790913,21.3947534 21.9081131,22.1341794 C21.2752326,21.7932337 20.6508757,21.4373716 20.0179952,21.0942949 C19.9604606,21.1092113 19.9135806,21.1475677 19.8624387,21.1731386 C19.2807001,21.4927753 18.7032232,21.8188046 18.1193537,22.1320485 C18.2344228,21.3926224 18.3622775,20.6553273 18.4773467,19.9159012 C17.9701899,19.3895663 17.4566404,18.869624 16.9494836,18.3454199 C17.4523786,18.2644453 17.9552735,18.1919944 18.4581685,18.1131507 C18.6584741,18.0833179 18.8587797,18.0470924 19.0612163,18.0236524 L19.0612163,18.0236524 Z" id="形状" fill="url(#linearGradient-1)" fill-rule="nonzero"></path>
            </g>
        </g>
    </g>
</svg>